<mxfile host="app.diagrams.net" modified="2023-11-22T16:14:43.176Z" agent="Mozilla/5.0 (Windows NT 10.0; Win64; x64; rv:109.0) Gecko/20100101 Firefox/119.0" version="22.1.3" etag="8xDxOtUXK8Ar0vOp_ZUb" type="github">
  <diagram name="Page-1" id="DsC8TJ3brhf2M968oVDr">
    <mxGraphModel>
      <root>
        <mxCell id="0" />
        <mxCell id="1" parent="0" />
      </root>
    </mxGraphModel>
  </diagram>
</mxfile>
